<svg width="32" height="32" viewBox="0 0 32 32" fill="none" xmlns="http://www.w3.org/2000/svg">
<path d="M32 16C32 24.8366 24.8366 32 16 32C11.3417 32 7.14841 30.0095 4.22465 26.8323C3.45665 25.9984 2.77682 25.0821 2.1982 24.0993C0.801306 21.7234 0 18.9551 0 16C0 7.16343 7.16343 0 16 0C18.9558 0 21.7241 0.801306 24.0993 2.19886C25.0821 2.77682 25.9977 3.45665 26.8317 4.22531C30.0088 7.14775 32 11.3417 32 16Z" fill="#F0CD00"/>
<path d="M32 16.0001C32 24.6375 25.1566 31.6762 16.5956 31.989C8.03465 31.6762 1.19122 24.6375 1.19122 16.0001C1.19122 7.36274 8.03465 0.324047 16.5956 0.0112305C25.1566 0.324047 32 7.36274 32 16.0001Z" fill="#FFDE50"/>
<path d="M26.8316 4.22542L4.22463 26.8324C3.45663 25.9985 2.77679 25.0822 2.19818 24.0994L24.0992 2.19897C25.0821 2.77693 25.9977 3.45677 26.8316 4.22542Z" fill="#FFEA94"/>
<path d="M30.8963 10.1505L10.1499 30.8969C8.68114 30.3196 7.3182 29.5314 6.09894 28.5694L28.5695 6.09888C29.5314 7.31814 30.3197 8.68108 30.8963 10.1505Z" fill="#FFEA94"/>
<path d="M28.433 16.0001C28.433 22.8664 22.8663 28.4331 16.0001 28.4331C13.6085 28.4331 11.3751 27.7578 9.47924 26.5875C8.65312 26.0782 7.89165 25.4741 7.20855 24.791C6.70634 24.2894 6.24659 23.7441 5.83581 23.1622C5.27026 22.3609 4.79679 21.4897 4.43173 20.5644C3.891 19.1962 3.58667 17.7085 3.56838 16.1529C3.56708 16.102 3.56708 16.0511 3.56708 16.0001C3.56708 9.13383 9.13312 3.56714 16.0001 3.56714C16.051 3.56714 16.1026 3.56714 16.1535 3.56844C17.7091 3.58673 19.1961 3.89171 20.5643 4.43179C21.4897 4.79751 22.3609 5.27032 23.1622 5.83587C23.7441 6.2473 24.2887 6.7064 24.7909 7.20861C25.474 7.89106 26.0781 8.65318 26.5875 9.4793C27.7578 11.3751 28.433 13.6086 28.433 16.0001Z" fill="#FAA300"/>
<path d="M24.7909 7.20861L7.20855 24.791C6.70634 24.2894 6.24659 23.7441 5.83581 23.1622C5.27026 22.3609 4.79679 21.4897 4.43173 20.5644C3.891 19.1962 3.58667 17.7085 3.56838 16.1529C3.56708 16.102 3.56708 16.0511 3.56708 16.0001C3.56708 9.13383 9.13312 3.56714 16.0001 3.56714C16.051 3.56714 16.1026 3.56714 16.1535 3.56844C17.7091 3.58673 19.1961 3.89171 20.5643 4.43179C21.4897 4.79751 22.3609 5.27032 23.1622 5.83587C23.7441 6.2473 24.2887 6.7064 24.7909 7.20861Z" fill="#FFBD00"/>
<path d="M28.4327 16.0001C28.4327 22.8664 22.866 28.4331 15.9997 28.4331C15.764 28.4331 15.5302 28.4266 15.2977 28.4135C21.8374 28.0497 27.028 22.6306 27.028 16.0001C27.028 9.36959 21.8374 3.95049 15.2977 3.58673C15.5302 3.57367 15.764 3.56714 15.9997 3.56714C22.866 3.56714 28.4327 9.13383 28.4327 16.0001Z" fill="#F68E00"/>
<path d="M12.328 12.9841V10.3681L15.568 9.7441L15.256 12.9841H18.16L17.896 14.9521H15.16L15.04 19.9681C15.04 20.7201 15.112 21.2241 15.256 21.4801C15.4 21.7201 15.664 21.8401 16.048 21.8401C16.432 21.8401 16.944 21.7521 17.584 21.5761L17.728 23.2801C16.672 24.1601 15.744 24.6001 14.944 24.6001C14.144 24.6001 13.488 24.3121 12.976 23.7361C12.464 23.1441 12.208 22.3761 12.208 21.4321L12.352 18.7441L12.328 14.9521H10.672L10.936 12.9841H12.328Z" fill="#F68E00"/>
<path d="M13.928 11.384V8.768L17.168 8.144L16.856 11.384H19.76L19.496 13.352H16.76L16.64 18.368C16.64 19.12 16.712 19.624 16.856 19.88C17 20.12 17.264 20.24 17.648 20.24C18.032 20.24 18.544 20.152 19.184 19.976L19.328 21.68C18.272 22.56 17.344 23 16.544 23C15.744 23 15.088 22.712 14.576 22.136C14.064 21.544 13.808 20.776 13.808 19.832L13.952 17.144L13.928 13.352H12.272L12.536 11.384H13.928Z" fill="#FFEA94"/>
</svg>
