<svg width="24" height="24" viewBox="0 0 24 24" fill="none" xmlns="http://www.w3.org/2000/svg">
<path d="M22.683 9.394L20.803 9.155C20.648 8.678 20.457 8.218 20.234 7.781L21.395 6.286C21.865 5.681 21.81 4.827 21.273 4.307L19.698 2.732C19.173 2.19 18.319 2.136 17.713 2.605L16.22 3.766C15.783 3.543 15.323 3.352 14.845 3.197L14.606 1.32C14.516 0.567 13.877 0 13.12 0H10.88C10.123 0 9.484 0.567 9.394 1.317L9.155 3.197C8.677 3.352 8.217 3.542 7.78 3.766L6.286 2.605C5.682 2.136 4.828 2.19 4.307 2.727L2.732 4.301C2.19 4.827 2.135 5.681 2.605 6.287L3.766 7.781C3.542 8.218 3.352 8.678 3.197 9.155L1.32 9.394C0.567 9.484 0 10.123 0 10.88V13.12C0 13.877 0.567 14.516 1.317 14.606L3.197 14.845C3.352 15.322 3.543 15.782 3.766 16.219L2.605 17.714C2.135 18.319 2.19 19.173 2.727 19.693L4.302 21.268C4.828 21.809 5.681 21.863 6.287 21.394L7.781 20.233C8.218 20.457 8.678 20.648 9.155 20.802L9.394 22.678C9.484 23.433 10.123 24 10.88 24H13.12C13.877 24 14.516 23.433 14.606 22.683L14.845 20.803C15.322 20.648 15.782 20.457 16.219 20.234L17.714 21.395C18.319 21.865 19.173 21.81 19.693 21.273L21.268 19.698C21.81 19.172 21.865 18.319 21.395 17.713L20.234 16.219C20.458 15.782 20.649 15.322 20.803 14.845L22.679 14.606C23.432 14.516 23.999 13.877 23.999 13.12V10.88C24 10.123 23.433 9.484 22.683 9.394V9.394ZM12 17C9.243 17 7 14.757 7 12C7 9.243 9.243 7 12 7C14.757 7 17 9.243 17 12C17 14.757 14.757 17 12 17Z" fill="#6B6B6B"/>
</svg>
