<svg width="32" height="32" viewBox="0 0 32 32" fill="none" xmlns="http://www.w3.org/2000/svg">
<g clip-path="url(#clip0_1:151)">
<path d="M31.4885 14.7567L19.9322 3.20013C19.6023 2.87024 19.1626 2.68917 18.6938 2.68917C18.2245 2.68917 17.7851 2.8705 17.4552 3.20013L16.406 4.24961C16.0764 4.57898 15.8948 5.01891 15.8948 5.48798C15.8948 5.95679 16.0764 6.41155 16.406 6.74091L23.1478 13.4975H1.72877C0.763051 13.4975 0 14.2536 0 15.2195V16.7032C0 17.6692 0.763051 18.5015 1.72877 18.5015H23.2243L16.4062 25.2958C16.0766 25.6257 15.895 26.0537 15.895 26.5227C15.895 26.9913 16.0766 27.4255 16.4062 27.7551L17.4555 28.8012C17.7854 29.1311 18.2248 29.3109 18.6941 29.3109C19.1629 29.3109 19.6026 29.1288 19.9325 28.7989L31.4888 17.2425C31.8194 16.9116 32.0013 16.4699 32 16.0003C32.001 15.5291 31.8194 15.0871 31.4885 14.7567Z" fill="#080808"/>
</g>
<defs>
<clipPath id="clip0_1:151">
<rect width="32" height="32" fill="white"/>
</clipPath>
</defs>
</svg>
