<svg width="32" height="32" viewBox="0 0 32 32" fill="none" xmlns="http://www.w3.org/2000/svg">
<g clip-path="url(#clip0_151_38)">
<path d="M8.33277 24.7084C6.1982 24.7084 4.29947 23.3416 3.61 21.3069L3.56337 21.1536C3.40077 20.6147 3.33265 20.1616 3.33265 19.7082V10.6172L0.0979521 21.4148C-0.318074 23.003 0.629948 24.6495 2.22056 25.0882L22.8385 30.6099C23.0958 30.6765 23.3532 30.7085 23.6066 30.7085C24.9345 30.7085 26.1479 29.8271 26.488 28.5283L27.6892 24.7084H8.33277Z" fill="#9557E3"/>
<path d="M11.9996 10.7079C13.4703 10.7079 14.6661 9.51182 14.6661 8.04108C14.6661 6.57034 13.4703 5.37427 11.9996 5.37427C10.5288 5.37427 9.33276 6.57034 9.33276 8.04108C9.33276 9.51182 10.5288 10.7079 11.9996 10.7079Z" fill="#9557E3"/>
<path d="M28.6665 1.37427H8.66598C6.82877 1.37427 5.33264 2.8704 5.33264 4.70785V19.3747C5.33264 21.2122 6.82877 22.7083 8.66598 22.7083H28.6665C30.5039 22.7083 32 21.2122 32 19.3747V4.70785C32 2.8704 30.5039 1.37427 28.6665 1.37427ZM8.66598 4.04108H28.6665C29.0346 4.04108 29.3332 4.33967 29.3332 4.70785V14.1734L25.1212 9.2585C24.6744 8.73456 24.0277 8.45452 23.3331 8.43865C22.6424 8.44256 21.9944 8.74921 21.5518 9.27998L16.5995 15.224L14.9862 13.6146C14.0743 12.7027 12.5901 12.7027 11.6795 13.6146L7.99945 17.2934V4.70785C7.99945 4.33967 8.29805 4.04108 8.66598 4.04108Z" fill="#9557E3"/>
</g>
<defs>
<clipPath id="clip0_151_38">
<rect width="32" height="32" fill="white"/>
</clipPath>
</defs>
</svg>
