<svg width="32" height="32" viewBox="0 0 32 32" fill="none" xmlns="http://www.w3.org/2000/svg">
<path d="M27.3125 2.5625C24.7278 2.5625 22.625 4.66531 22.625 7.25C22.625 8.8725 23.4539 10.3048 24.7102 11.1466L21.5627 18.8608C21.3589 18.8291 21.1501 18.8125 20.9375 18.8125C19.8119 18.8125 18.7919 19.2729 18.0554 20.0151L12.9978 16.9242C13.0801 16.6299 13.125 16.3202 13.125 16C13.125 14.1046 11.5829 12.5625 9.6875 12.5625C7.79206 12.5625 6.25 14.1046 6.25 16C6.25 16.8672 6.57344 17.6598 7.10512 18.2652L3.46563 23.8899C3.25588 23.8398 3.03737 23.8125 2.8125 23.8125C1.26169 23.8125 0 25.0742 0 26.625C0 28.1758 1.26169 29.4375 2.8125 29.4375C4.36331 29.4375 5.625 28.1758 5.625 26.625C5.625 25.9796 5.40594 25.3847 5.03906 24.9096L8.67794 19.2859C8.99731 19.3843 9.33625 19.4375 9.6875 19.4375C10.5864 19.4375 11.4056 19.0903 12.0187 18.5233L17.0763 21.6141C16.9463 22.0113 16.875 22.4349 16.875 22.875C16.875 25.1151 18.6974 26.9375 20.9375 26.9375C23.1776 26.9375 25 25.1151 25 22.875C25 21.5147 24.3273 20.3094 23.2978 19.5716L26.4459 11.8558C26.7269 11.9086 27.0163 11.9375 27.3125 11.9375C29.8972 11.9375 32 9.83469 32 7.25C32 4.66531 29.8972 2.5625 27.3125 2.5625ZM2.8125 27.5625C2.29556 27.5625 1.875 27.1419 1.875 26.625C1.875 26.1081 2.29556 25.6875 2.8125 25.6875C3.32944 25.6875 3.75 26.1081 3.75 26.625C3.75 27.1419 3.32944 27.5625 2.8125 27.5625ZM9.6875 17.5625C8.82594 17.5625 8.125 16.8616 8.125 16C8.125 15.1384 8.82594 14.4375 9.6875 14.4375C10.5491 14.4375 11.25 15.1384 11.25 16C11.25 16.8616 10.5491 17.5625 9.6875 17.5625ZM20.9375 25.0625C19.7313 25.0625 18.75 24.0812 18.75 22.875C18.75 21.6688 19.7313 20.6875 20.9375 20.6875C22.1437 20.6875 23.125 21.6688 23.125 22.875C23.125 24.0812 22.1437 25.0625 20.9375 25.0625ZM27.3125 10.0625C25.7617 10.0625 24.5 8.80081 24.5 7.25C24.5 5.69919 25.7617 4.4375 27.3125 4.4375C28.8633 4.4375 30.125 5.69919 30.125 7.25C30.125 8.80081 28.8633 10.0625 27.3125 10.0625Z" fill="url(#paint0_linear_155_282)"/>
<defs>
<linearGradient id="paint0_linear_155_282" x1="16" y1="29.4375" x2="16" y2="2.5625" gradientUnits="userSpaceOnUse">
<stop stop-color="#5558FF"/>
<stop offset="1" stop-color="#00C0FF"/>
</linearGradient>
</defs>
</svg>
