<svg width="24" height="23" viewBox="0 0 24 23" fill="none" xmlns="http://www.w3.org/2000/svg">
<g clip-path="url(#clip0_1:196)">
<path d="M12 8.36368C10.1946 8.36368 8.72729 9.7698 8.72729 11.5C8.72729 13.2303 10.1946 14.6364 12 14.6364C13.8055 14.6364 15.2728 13.2303 15.2728 11.5C15.2728 9.7698 13.8054 8.36368 12 8.36368Z" fill="#686868"/>
<path d="M12 3.65913C6.54546 3.65913 1.88729 6.91046 0 11.5C1.88729 16.0896 6.54546 19.341 12 19.341C17.46 19.341 22.1128 16.0896 24.0001 11.5C22.1128 6.91046 17.46 3.65913 12 3.65913ZM12 16.7273C8.98911 16.7273 6.54546 14.3855 6.54546 11.5C6.54546 8.61454 8.98911 6.27275 12 6.27275C15.0109 6.27275 17.4546 8.61459 17.4546 11.5C17.4546 14.3855 15.0109 16.7273 12 16.7273Z" fill="#686868"/>
</g>
<defs>
<clipPath id="clip0_1:196">
<rect width="24" height="23" fill="white"/>
</clipPath>
</defs>
</svg>
