<svg width="15" height="24" viewBox="0 0 15 24" fill="none" xmlns="http://www.w3.org/2000/svg">
<path d="M0.38283 12.9365L11.0631 23.6166C11.3102 23.8638 11.6399 24 11.9915 24C12.3431 24 12.6729 23.8638 12.9199 23.6166L13.7064 22.8303C14.2182 22.3179 14.2182 21.4851 13.7064 20.9735L4.73792 12.005L13.7164 3.02651C13.9634 2.77929 14.0998 2.44974 14.0998 2.09832C14.0998 1.74652 13.9634 1.41696 13.7164 1.16955L12.9299 0.383411C12.6826 0.136194 12.3531 0 12.0015 0C11.6499 0 11.3201 0.136194 11.0731 0.383411L0.38283 11.0733C0.135221 11.3213 -0.000777245 11.6524 3.8147e-06 12.0044C-0.000777245 12.3578 0.135221 12.6887 0.38283 12.9365Z" fill="#575757"/>
</svg>
