<svg width="20" height="20" viewBox="0 0 20 20" fill="none" xmlns="http://www.w3.org/2000/svg">
<path d="M2.30105 0.414614C1.78035 -0.10608 0.936126 -0.10608 0.415432 0.414614C-0.105274 0.935307 -0.105274 1.77953 0.415432 2.30023L8.1151 9.99987L0.415512 17.6995C-0.105194 18.2201 -0.105194 19.0644 0.415512 19.5851C0.936206 20.1057 1.78043 20.1057 2.30113 19.5851L10.0007 11.8855L17.7003 19.5851C18.221 20.1057 19.0652 20.1057 19.5859 19.5851C20.1066 19.0644 20.1066 18.2201 19.5859 17.6995L11.8863 9.99987L19.5859 2.30023C20.1067 1.77953 20.1067 0.935307 19.5859 0.414614C19.0652 -0.10608 18.2211 -0.10608 17.7003 0.414614L10.0007 8.11427L2.30105 0.414614Z" fill="#6B6B6B"/>
</svg>
