<svg width="16" height="16" viewBox="0 0 16 16" fill="none" xmlns="http://www.w3.org/2000/svg">
<g clip-path="url(#clip0_344_324)">
<path d="M8.00002 0.4C3.58882 0.4 2.15004e-05 3.62987 2.15004e-05 7.6C2.15004e-05 8.988 0.439221 10.3323 1.27149 11.4944C1.11389 13.2376 0.691488 14.5317 0.0781548 15.1448C-0.00291183 15.2259 -0.0231785 15.3499 0.0280215 15.4523C0.0736215 15.5437 0.166688 15.6 0.266688 15.6C0.278955 15.6 0.291488 15.5992 0.304021 15.5973C0.412021 15.5821 2.92082 15.2208 4.73522 14.1739C5.76589 14.5896 6.86349 14.8 8.00002 14.8C12.4112 14.8 16 11.5701 16 7.6C16 3.62987 12.4112 0.4 8.00002 0.4Z" fill="#939393"/>
</g>
<defs>
<clipPath id="clip0_344_324">
<rect width="16" height="16" fill="white"/>
</clipPath>
</defs>
</svg>
