<svg width="16" height="16" viewBox="0 0 16 16" fill="none" xmlns="http://www.w3.org/2000/svg">
<path d="M15.1446 7.37568L8.02444 0.255608C7.85976 0.090796 7.63992 0 7.40552 0C7.17111 0 6.95128 0.090796 6.7866 0.255608L6.26224 0.779831C5.92104 1.12142 5.92104 1.6766 6.26224 2.01767L12.2413 7.99668L6.25561 13.9823C6.09093 14.1471 6 14.3668 6 14.6011C6 14.8357 6.09093 15.0554 6.25561 15.2203L6.77996 15.7444C6.94477 15.9092 7.16448 16 7.39888 16C7.63329 16 7.85312 15.9092 8.01781 15.7444L15.1446 8.61782C15.3097 8.45248 15.4004 8.23174 15.3999 7.99707C15.4004 7.7615 15.3097 7.54088 15.1446 7.37568Z" fill="#575757"/>
</svg>
