<svg width="24" height="24" viewBox="0 0 24 24" fill="none" xmlns="http://www.w3.org/2000/svg">
<path d="M3.64087 17.3428V18.9547C3.64087 19.345 3.95728 19.6614 4.34766 19.6614H19.6523C20.0427 19.6614 20.3591 19.345 20.3591 18.9547V17.3428H3.64087Z" fill="#F3841C"/>
<path d="M24 8.35858C24 7.09937 22.9755 6.07489 21.7163 6.07489C20.4571 6.07489 19.4328 7.09937 19.4328 8.35858C19.4328 8.96393 19.6699 9.51471 20.0559 9.92377C19.3694 10.6917 18.3726 11.1764 17.2641 11.1764C15.4697 11.1764 13.9667 9.90784 13.6031 8.2207C14.0229 7.80634 14.2837 7.2312 14.2837 6.59619C14.2837 5.33698 13.2592 4.3125 12 4.3125C10.7408 4.3125 9.71631 5.33698 9.71631 6.59619C9.71631 7.2312 9.97723 7.80634 10.3969 8.2207C10.0333 9.90784 8.53033 11.1764 6.7359 11.1764C5.62738 11.1764 4.63055 10.6917 3.94409 9.92377C4.33008 9.51471 4.56738 8.96393 4.56738 8.35858C4.56738 7.09937 3.54291 6.07489 2.28369 6.07489C1.02448 6.07489 0 7.09937 0 8.35858C0 9.44989 0.769592 10.3643 1.79443 10.5888C1.99713 12.2617 2.38879 14.2998 3.14502 15.9291H20.855C21.6112 14.2998 22.0029 12.2617 22.2056 10.5888C23.2304 10.3641 24 9.44989 24 8.35858Z" fill="#F3841C"/>
</svg>
