<svg width="14" height="14" viewBox="0 0 14 14" fill="none" xmlns="http://www.w3.org/2000/svg">
<path d="M7.82252 7.00001L10.3309 4.49751C10.4407 4.38766 10.5024 4.23868 10.5024 4.08334C10.5024 3.928 10.4407 3.77902 10.3309 3.66917C10.221 3.55933 10.072 3.49762 9.91669 3.49762C9.76135 3.49762 9.61237 3.55933 9.50253 3.66917L7.00003 6.17751L4.49753 3.66917C4.38768 3.55933 4.2387 3.49762 4.08336 3.49762C3.92802 3.49762 3.77904 3.55933 3.66919 3.66917C3.55935 3.77902 3.49764 3.928 3.49764 4.08334C3.49764 4.23868 3.55935 4.38766 3.66919 4.49751L6.17753 7.00001L3.66919 9.50251C3.61452 9.55674 3.57112 9.62125 3.54151 9.69234C3.51189 9.76342 3.49664 9.83967 3.49664 9.91667C3.49664 9.99368 3.51189 10.0699 3.54151 10.141C3.57112 10.2121 3.61452 10.2766 3.66919 10.3308C3.72342 10.3855 3.78794 10.4289 3.85902 10.4585C3.93011 10.4881 4.00635 10.5034 4.08336 10.5034C4.16037 10.5034 4.23661 10.4881 4.3077 10.4585C4.37878 10.4289 4.4433 10.3855 4.49753 10.3308L7.00003 7.82251L9.50253 10.3308C9.55675 10.3855 9.62127 10.4289 9.69235 10.4585C9.76344 10.4881 9.83968 10.5034 9.91669 10.5034C9.9937 10.5034 10.0699 10.4881 10.141 10.4585C10.2121 10.4289 10.2766 10.3855 10.3309 10.3308C10.3855 10.2766 10.4289 10.2121 10.4585 10.141C10.4882 10.0699 10.5034 9.99368 10.5034 9.91667C10.5034 9.83967 10.4882 9.76342 10.4585 9.69234C10.4289 9.62125 10.3855 9.55674 10.3309 9.50251L7.82252 7.00001Z" fill="#E5D9D9"/>
</svg>
