<svg width="20" height="20" viewBox="0 0 20 20" fill="none" xmlns="http://www.w3.org/2000/svg">
<g clip-path="url(#clip0_150_5)">
<path d="M20 10C20 15.5229 15.5229 20 10 20C7.08857 20 4.46775 18.7559 2.64041 16.7702C2.16041 16.249 1.73551 15.6763 1.37388 15.062C0.500816 13.5771 0 11.8469 0 10C0 4.47714 4.47714 0 10 0C11.8473 0 13.5775 0.500816 15.062 1.37429C15.6763 1.73551 16.2486 2.16041 16.7698 2.64082C18.7555 4.46735 20 7.08857 20 10Z" fill="#F0CD00"/>
<path d="M20 10.0001C20 15.3985 15.7229 19.7977 10.3723 19.9932C5.02165 19.7977 0.744507 15.3985 0.744507 10.0001C0.744507 4.60177 5.02165 0.20259 10.3723 0.00708008C15.7229 0.20259 20 4.60177 20 10.0001Z" fill="#FFDE50"/>
<path d="M16.7698 2.6408L2.64037 16.7702C2.16037 16.249 1.73547 15.6763 1.37384 15.062L15.062 1.37427C15.6763 1.73549 16.2485 2.16039 16.7698 2.6408Z" fill="#FFEA94"/>
<path d="M19.3102 6.34401L6.34367 19.3105C5.42571 18.9497 4.57387 18.4571 3.81183 17.8559L17.8559 3.81177C18.4571 4.57381 18.9498 5.42564 19.3102 6.34401Z" fill="#FFEA94"/>
<path d="M17.7707 10.0001C17.7707 14.2915 14.2915 17.7707 10 17.7707C8.50535 17.7707 7.10943 17.3487 5.92453 16.6172C5.40821 16.2989 4.93229 15.9213 4.50535 15.4944C4.19147 15.1809 3.90413 14.8401 3.64739 14.4764C3.29392 13.9756 2.998 13.4311 2.76984 12.8528C2.43188 11.9977 2.24168 11.0679 2.23025 10.0956C2.22943 10.0638 2.22943 10.0319 2.22943 10.0001C2.22943 5.70868 5.70821 2.22949 10 2.22949C10.0319 2.22949 10.0641 2.22949 10.096 2.23031C11.0682 2.24174 11.9976 2.43235 12.8527 2.7699C13.4311 2.99847 13.9756 3.29398 14.4764 3.64745C14.84 3.90459 15.1805 4.19153 15.4943 4.50541C15.9213 4.93194 16.2988 5.40827 16.6172 5.92459C17.3486 7.10949 17.7707 8.50541 17.7707 10.0001Z" fill="#FAA300"/>
<path d="M15.4943 4.50541L4.50535 15.4944C4.19147 15.1809 3.90413 14.8401 3.64739 14.4764C3.29392 13.9756 2.998 13.4311 2.76984 12.8528C2.43188 11.9977 2.24168 11.0679 2.23025 10.0956C2.22943 10.0638 2.22943 10.0319 2.22943 10.0001C2.22943 5.70868 5.70821 2.22949 10 2.22949C10.0319 2.22949 10.0641 2.22949 10.096 2.23031C11.0682 2.24174 11.9976 2.43235 12.8527 2.7699C13.4311 2.99847 13.9756 3.29398 14.4764 3.64745C14.84 3.90459 15.1805 4.19153 15.4943 4.50541Z" fill="#FFBD00"/>
<path d="M17.7704 10.0001C17.7704 14.2915 14.2912 17.7707 9.99981 17.7707C9.85246 17.7707 9.70634 17.7666 9.56104 17.7585C13.6484 17.5311 16.8925 14.1442 16.8925 10.0001C16.8925 5.85602 13.6484 2.46908 9.56104 2.24174C9.70634 2.23357 9.85246 2.22949 9.99981 2.22949C14.2912 2.22949 17.7704 5.70868 17.7704 10.0001Z" fill="#F68E00"/>
<path d="M7.746 7.288V5.326L10.176 4.858L9.942 7.288H12.12L11.922 8.764H9.87L9.78 12.526C9.78 13.09 9.834 13.468 9.942 13.66C10.05 13.84 10.248 13.93 10.536 13.93C10.824 13.93 11.208 13.864 11.688 13.732L11.796 15.01C11.004 15.67 10.308 16 9.708 16C9.108 16 8.616 15.784 8.232 15.352C7.848 14.908 7.656 14.332 7.656 13.624L7.764 11.608L7.746 8.764H6.504L6.702 7.288H7.746Z" fill="#F68E00"/>
<path d="M8.746 6.288V4.326L11.176 3.858L10.942 6.288H13.12L12.922 7.764H10.87L10.78 11.526C10.78 12.09 10.834 12.468 10.942 12.66C11.05 12.84 11.248 12.93 11.536 12.93C11.824 12.93 12.208 12.864 12.688 12.732L12.796 14.01C12.004 14.67 11.308 15 10.708 15C10.108 15 9.616 14.784 9.232 14.352C8.848 13.908 8.656 13.332 8.656 12.624L8.764 10.608L8.746 7.764H7.504L7.702 6.288H8.746Z" fill="#FFEA94"/>
</g>
<defs>
<clipPath id="clip0_150_5">
<rect width="20" height="20" fill="white"/>
</clipPath>
</defs>
</svg>
