<svg width="40" height="40" viewBox="0 0 40 40" fill="none" xmlns="http://www.w3.org/2000/svg">
<mask id="mask0_42_49" style="mask-type:alpha" maskUnits="userSpaceOnUse" x="0" y="0" width="40" height="40">
<rect x="19.6526" width="27.7929" height="27.7929" transform="rotate(45 19.6526 0)" fill="#AB5353" fill-opacity="0.6"/>
</mask>
<g mask="url(#mask0_42_49)">
<path d="M25.6526 23.6818C22.1479 23.6818 15.1526 25.8745 15.1526 30.2273V33.5H36.1526V30.2273C36.1526 25.8745 29.1573 23.6818 25.6526 23.6818Z" fill="#6B6B6B"/>
<path d="M25.6526 21.5C28.9238 21.5 31.5756 18.8137 31.5756 15.5C31.5756 12.1863 28.9238 9.5 25.6526 9.5C22.3813 9.5 19.7295 12.1863 19.7295 15.5C19.7295 18.8137 22.3813 21.5 25.6526 21.5Z" fill="#6B6B6B"/>
</g>
<path d="M27.759 33.91L26.1526 37.489L29.7162 35.8663L29.7235 35.8741L27.7533 33.9018L27.759 33.91ZM28.0232 33.6307L36.1658 25.4885L38.1368 27.4591L29.9938 35.6017L28.0232 33.6307ZM38.7059 24.8825C37.8506 24.0846 36.8816 24.8191 36.8816 24.8191L38.8534 26.7876C38.8526 26.7872 39.6168 25.8718 38.7059 24.8825Z" fill="#454545"/>
</svg>
