<svg width="32" height="32" viewBox="0 0 32 32" fill="none" xmlns="http://www.w3.org/2000/svg">
<path d="M2.33335 31.9999H19C20.28 31.9999 21.3334 30.9465 21.3334 29.6665V12.9999C21.3334 11.7199 20.28 10.6665 19 10.6665H2.33335C1.05335 10.6665 0 11.7199 0 12.9999V29.6665C0 30.9465 1.05335 31.9999 2.33335 31.9999ZM6.66665 24.3332V16.9999C6.66665 16.6532 6.84 16.3332 7.14665 16.1465C7.44 15.9599 7.8 15.9465 8.10665 16.1065L15.44 19.7731C15.7866 19.9465 16 20.2931 16 20.6665C16 21.0399 15.7866 21.3865 15.44 21.5599L8.10665 25.2265C7.97329 25.2931 7.81329 25.3331 7.66665 25.3331C7.48 25.3331 7.30665 25.2798 7.14665 25.1865C6.84 24.9999 6.66665 24.6799 6.66665 24.3332Z" fill="#575757"/>
<path d="M28 18.6665C30.2091 18.6665 32 16.8756 32 14.6665C32 12.4574 30.2091 10.6665 28 10.6665C25.7909 10.6665 24 12.4574 24 14.6665C24 16.8756 25.7909 18.6665 28 18.6665Z" fill="#575757"/>
<path d="M31 25.3335H25C24.448 25.3335 24 25.7815 24 26.3335C24 26.8855 24.448 27.3335 25 27.3335H31C31.552 27.3335 32 26.8855 32 26.3335C32 25.7815 31.552 25.3335 31 25.3335Z" fill="#575757"/>
<path d="M31 29.3335H25C24.448 29.3335 24 29.7815 24 30.3335C24 30.8855 24.448 31.3335 25 31.3335H31C31.552 31.3335 32 30.8855 32 30.3335C32 29.7815 31.552 29.3335 31 29.3335Z" fill="#575757"/>
<path d="M31 21.3335H25C24.448 21.3335 24 21.7815 24 22.3335C24 22.8855 24.448 23.3335 25 23.3335H31C31.552 23.3335 32 22.8855 32 22.3335C32 21.7815 31.552 21.3335 31 21.3335Z" fill="#575757"/>
<path d="M29.6666 0H2.33335C1.04668 0 0 1.04668 0 2.33335V5.66671C0 6.95332 1.04668 8 2.33335 8H29.6667C30.9533 8 32 6.95332 32 5.66665V2.33335C32 1.04668 30.9533 0 29.6666 0Z" fill="#575757"/>
</svg>
