<svg width="32" height="32" viewBox="0 0 32 32" fill="none" xmlns="http://www.w3.org/2000/svg">
<g clip-path="url(#clip0_145_509)">
<path d="M0.119599 6.90234C-0.00346326 7.12159 -0.0333383 7.38103 0.0366617 7.62246L4.4371 22.7937V5.43896L0.691287 6.45659C0.448724 6.52253 0.242724 6.68315 0.119599 6.90234Z" fill="#575757"/>
<path d="M31.8799 6.90234C31.7569 6.68309 31.5509 6.52253 31.3083 6.45659L27.5625 5.43896V22.7937L31.9629 7.62253C32.0329 7.38109 32.0031 7.12159 31.8799 6.90234Z" fill="#575757"/>
<path d="M17.6771 13.3486C17.2984 13.3486 16.9498 13.5036 16.6954 13.7849C16.5176 13.9815 16.265 14.0936 16 14.0936C15.7349 14.0936 15.4823 13.9814 15.3046 13.7849C15.0503 13.5036 14.7016 13.3486 14.3229 13.3486C13.5934 13.3486 13 13.9421 13 14.6715C13 15.993 14.8827 17.6384 16.0021 18.4537C17.3264 17.4984 19 15.8881 19 14.6715C19 13.9421 18.4066 13.3486 17.6771 13.3486Z" fill="#575757"/>
<path d="M24.75 1.9375H7.25C6.73225 1.9375 6.3125 2.35725 6.3125 2.875V29.125C6.3125 29.6427 6.73225 30.0625 7.25 30.0625H24.75C25.2677 30.0625 25.6875 29.6427 25.6875 29.125V2.875C25.6875 2.35725 25.2677 1.9375 24.75 1.9375ZM9.125 5.6875C8.60725 5.6875 8.1875 5.26775 8.1875 4.75C8.1875 4.23225 8.60725 3.8125 9.125 3.8125C9.64275 3.8125 10.0625 4.23225 10.0625 4.75C10.0625 5.26775 9.64275 5.6875 9.125 5.6875ZM16.5028 20.3801C16.3494 20.4776 16.1747 20.5264 16 20.5264C15.8253 20.5264 15.6506 20.4776 15.4972 20.3801C15.0497 20.0958 11.125 17.5197 11.125 14.6716C11.125 12.9082 12.5596 11.4737 14.3229 11.4737C14.9198 11.4737 15.5002 11.6418 16 11.9494C16.4999 11.6418 17.0803 11.4737 17.6771 11.4737C19.4404 11.4737 20.875 12.9082 20.875 14.6716C20.875 17.5197 16.9503 20.0958 16.5028 20.3801ZM22.875 28.1875C22.3573 28.1875 21.9375 27.7677 21.9375 27.25C21.9375 26.7323 22.3573 26.3125 22.875 26.3125C23.3927 26.3125 23.8125 26.7323 23.8125 27.25C23.8125 27.7677 23.3927 28.1875 22.875 28.1875Z" fill="#575757"/>
</g>
<defs>
<clipPath id="clip0_145_509">
<rect width="32" height="32" fill="white"/>
</clipPath>
</defs>
</svg>
