<svg width="32" height="30" viewBox="0 0 32 30" fill="none" xmlns="http://www.w3.org/2000/svg">
<path d="M20.8246 6.12748C19.018 2.43876 15.2391 0 11.0002 0C4.93493 0 0.000481641 4.90645 0.000481641 10.9372C0.000481641 12.5762 0.352348 14.1471 1.04683 15.6118L0.0186687 20.7532C-0.112203 21.4077 0.465158 21.9862 1.11977 21.8567L6.32458 20.8276C7.02538 21.1601 7.75036 21.4129 8.49528 21.5871C6.82551 13.6784 12.8201 6.25485 20.8246 6.12748Z" fill="#575757"/>
<path d="M30.9531 23.6114C31.1328 23.2326 31.2889 22.8466 31.4226 22.4543H31.3883C33.7287 15.5846 28.8067 8.36452 21.5405 8.01297C21.5404 8.01259 21.5404 8.01222 21.5402 8.01184C15.2881 7.72373 10.0938 12.7296 10.0938 18.9368C10.0938 24.9626 14.9912 29.8651 21.0149 29.8739C22.6488 29.8717 24.2149 29.52 25.6753 28.8272C31.3756 29.9542 30.9311 29.8741 31.062 29.8741C31.6544 29.8741 32.097 29.3312 31.9813 28.7528L30.9531 23.6114Z" fill="#575757"/>
</svg>
