<svg width="16" height="16" viewBox="0 0 16 16" fill="none" xmlns="http://www.w3.org/2000/svg">
<path d="M14.6086 4.17385H12.4034L11.1304 2.78253H6.26082V4.86949H4.17387V6.95644H2.08691V13.9129C2.08691 14.6782 2.713 15.3043 3.47823 15.3043H14.6086C15.3739 15.3043 16 14.6782 16 13.9129V5.56513C16 4.79993 15.3739 4.17385 14.6086 4.17385ZM9.04342 13.2173C7.12342 13.2173 5.56515 11.659 5.56515 9.73904C5.56515 7.81904 7.12342 6.2608 9.04342 6.2608C10.9634 6.2608 12.5217 7.81907 12.5217 9.73907C12.5217 11.6591 10.9634 13.2173 9.04342 13.2173Z" fill="#E34E4E"/>
<path d="M2.08696 6.26084H3.47827V4.17389H5.56522V2.78257H3.47827V0.695618H2.08696V2.78257H0V4.17389H2.08696V6.26084Z" fill="#E34E4E"/>
<path d="M9.04348 7.513C7.81218 7.513 6.81738 8.50779 6.81738 9.7391C6.81738 10.9704 7.81218 11.9652 9.04348 11.9652C10.2748 11.9652 11.2696 10.9704 11.2696 9.7391C11.2696 8.50779 10.2748 7.513 9.04348 7.513Z" fill="#E34E4E"/>
</svg>
