<svg width="32" height="32" viewBox="0 0 32 32" fill="none" xmlns="http://www.w3.org/2000/svg">
<g clip-path="url(#clip0_145_528)">
<path d="M15.772 15.4145C17.8896 15.4145 19.7234 14.655 21.2217 13.1564C22.72 11.6582 23.4795 9.82491 23.4795 7.707C23.4795 5.58982 22.72 3.75633 21.2214 2.25756C19.7229 0.759519 17.8894 0 15.772 0C13.6541 0 11.8208 0.759519 10.3225 2.2578C8.82422 3.75609 8.06445 5.58958 8.06445 7.707C8.06445 9.82491 8.82422 11.6584 10.3228 13.1567C11.8213 14.6547 13.6548 15.4145 15.772 15.4145Z" fill="#9557E3"/>
<path d="M29.2581 24.6062C29.2148 23.9826 29.1274 23.3025 28.9988 22.5842C28.8689 21.8606 28.7017 21.1765 28.5015 20.5512C28.2947 19.905 28.0134 19.2668 27.6658 18.6553C27.3049 18.0205 26.8811 17.4678 26.4055 17.0129C25.9082 16.5371 25.2993 16.1545 24.5952 15.8755C23.8936 15.5979 23.116 15.4573 22.2842 15.4573C21.9575 15.4573 21.6416 15.5913 21.0315 15.9885C20.656 16.2334 20.2168 16.5166 19.7266 16.8298C19.3074 17.0969 18.7395 17.3472 18.0381 17.5737C17.3538 17.7952 16.6589 17.9075 15.9731 17.9075C15.2874 17.9075 14.5928 17.7952 13.9077 17.5737C13.207 17.3474 12.6392 17.0972 12.2205 16.8301C11.7349 16.5198 11.2954 16.2366 10.9143 15.9883C10.3049 15.5911 9.98877 15.457 9.66211 15.457C8.83008 15.457 8.05273 15.5979 7.35132 15.8757C6.64771 16.1543 6.03857 16.5369 5.54077 17.0132C5.06543 17.4683 4.64136 18.0207 4.28101 18.6553C3.93359 19.2668 3.65234 19.9048 3.44531 20.5515C3.24536 21.1767 3.07812 21.8606 2.94824 22.5842C2.81958 23.3015 2.73218 23.9819 2.68896 24.6069C2.64648 25.2192 2.625 25.8547 2.625 26.4965C2.625 28.1669 3.15601 29.5192 4.20312 30.5165C5.2373 31.5007 6.60571 31.9999 8.26978 31.9999H23.678C25.342 31.9999 26.71 31.5009 27.7444 30.5165C28.7917 29.52 29.3228 28.1674 29.3228 26.4963C29.3225 25.8515 29.3008 25.2155 29.2581 24.6062Z" fill="#9557E3"/>
</g>
<defs>
<clipPath id="clip0_145_528">
<rect width="32" height="32" fill="white"/>
</clipPath>
</defs>
</svg>
