<svg width="20" height="20" viewBox="0 0 20 20" fill="none" xmlns="http://www.w3.org/2000/svg">
<g clip-path="url(#clip0_20_205)">
<path d="M13.3566 2.28851C10.3056 -0.762513 5.3398 -0.762513 2.28877 2.28851C-0.761592 5.3402 -0.761592 10.3053 2.28877 13.357C5.0058 16.0734 9.23742 16.3644 12.2865 14.2433C12.3506 14.5469 12.4974 14.8365 12.7336 15.0727L17.1768 19.5159C17.8243 20.1621 18.8707 20.1621 19.5149 19.5159C20.1617 18.8691 20.1617 17.8228 19.5149 17.1779L15.0716 12.7333C14.8368 12.4992 14.5465 12.3517 14.2429 12.2875C16.3653 9.23782 16.0743 5.00686 13.3566 2.28851ZM11.9538 11.9542C9.67592 14.232 5.96879 14.232 3.6916 11.9542C1.41507 9.67632 1.41507 5.96985 3.6916 3.692C5.96879 1.41481 9.67592 1.41481 11.9538 3.692C14.2316 5.96985 14.2316 9.67632 11.9538 11.9542Z" fill="#BCBCBC"/>
</g>
<defs>
<clipPath id="clip0_20_205">
<rect width="20" height="20" fill="white"/>
</clipPath>
</defs>
</svg>
