<svg width="32" height="32" viewBox="0 0 32 32" fill="none" xmlns="http://www.w3.org/2000/svg">
<g clip-path="url(#clip0_1_230)">
<path d="M8.33284 24.7083C6.19826 24.7083 4.29953 23.3416 3.61006 21.3068L3.56343 21.1535C3.40083 20.6147 3.33271 20.1615 3.33271 19.7082V10.6171L0.0980131 21.4148C-0.318013 23.0029 0.630009 24.6495 2.22062 25.0882L22.8386 30.6098C23.0959 30.6765 23.3532 30.7084 23.6066 30.7084C24.9346 30.7084 26.148 29.8271 26.4881 28.5282L27.6893 24.7083H8.33284Z" fill="#E5D9D9"/>
<path d="M11.9996 10.7078C13.4703 10.7078 14.6661 9.51176 14.6661 8.04102C14.6661 6.57028 13.4703 5.37421 11.9996 5.37421C10.5288 5.37421 9.33276 6.57028 9.33276 8.04102C9.33276 9.51176 10.5288 10.7078 11.9996 10.7078Z" fill="#E5D9D9"/>
<path d="M28.6665 1.37421H8.66598C6.82877 1.37421 5.33264 2.87034 5.33264 4.70778V19.3747C5.33264 21.2121 6.82877 22.7082 8.66598 22.7082H28.6665C30.5039 22.7082 32 21.2121 32 19.3747V4.70778C32 2.87034 30.5039 1.37421 28.6665 1.37421ZM8.66598 4.04102H28.6665C29.0346 4.04102 29.3332 4.33961 29.3332 4.70778V14.1734L25.1212 9.25843C24.6744 8.7345 24.0277 8.45446 23.3331 8.43859C22.6424 8.4425 21.9944 8.74914 21.5518 9.27992L16.5995 15.2239L14.9862 13.6145C14.0743 12.7026 12.5901 12.7026 11.6795 13.6145L7.99945 17.2933V4.70778C7.99945 4.33961 8.29805 4.04102 8.66598 4.04102Z" fill="#E5D9D9"/>
</g>
<defs>
<clipPath id="clip0_1_230">
<rect width="32" height="32" fill="white"/>
</clipPath>
</defs>
</svg>
