<svg width="32" height="32" viewBox="0 0 32 32" fill="none" xmlns="http://www.w3.org/2000/svg">
<g clip-path="url(#clip0_103_826)">
<path d="M8.33271 24.7083C6.19814 24.7083 4.29941 23.3416 3.60994 21.3068L3.56331 21.1535C3.40071 20.6147 3.33259 20.1615 3.33259 19.7082V10.6171L0.0978911 21.4148C-0.318135 23.0029 0.629887 24.6495 2.2205 25.0882L22.8384 30.6098C23.0958 30.6765 23.3531 30.7084 23.6065 30.7084C24.9344 30.7084 26.1478 29.8271 26.4879 28.5282L27.6891 24.7083H8.33271Z" fill="#6B6B6B"/>
<path d="M11.9996 10.7078C13.4703 10.7078 14.6661 9.51176 14.6661 8.04102C14.6661 6.57028 13.4703 5.37421 11.9996 5.37421C10.5288 5.37421 9.33276 6.57028 9.33276 8.04102C9.33276 9.51176 10.5288 10.7078 11.9996 10.7078Z" fill="#6B6B6B"/>
<path d="M28.6666 1.37421H8.6661C6.82889 1.37421 5.33276 2.87034 5.33276 4.70778V19.3747C5.33276 21.2121 6.82889 22.7082 8.6661 22.7082H28.6666C30.504 22.7082 32.0002 21.2121 32.0002 19.3747V4.70778C32.0002 2.87034 30.504 1.37421 28.6666 1.37421ZM8.6661 4.04102H28.6666C29.0348 4.04102 29.3334 4.33961 29.3334 4.70778V14.1734L25.1213 9.25843C24.6745 8.7345 24.0278 8.45446 23.3332 8.43859C22.6425 8.4425 21.9945 8.74914 21.5519 9.27992L16.5996 15.2239L14.9863 13.6145C14.0744 12.7026 12.5903 12.7026 11.6796 13.6145L7.99958 17.2933V4.70778C7.99958 4.33961 8.29817 4.04102 8.6661 4.04102Z" fill="#6B6B6B"/>
</g>
<defs>
<clipPath id="clip0_103_826">
<rect width="32" height="32" fill="white"/>
</clipPath>
</defs>
</svg>
