<svg width="32" height="32" viewBox="0 0 32 32" fill="none" xmlns="http://www.w3.org/2000/svg">
<path d="M16 0C13.1081 0 10.4178 0.659196 7.92889 1.97759C5.51111 3.27244 3.59111 5.02637 2.16889 7.23939C0.722963 9.49949 0 11.9538 0 14.6024C0 17.2509 0.722963 19.7053 2.16889 21.9654C3.59111 24.1784 5.51111 25.9205 7.92889 27.1919C10.4178 28.5338 13.1081 29.2048 16 29.2048C17.9674 29.2048 19.8756 28.8869 21.7244 28.2513C21.8193 28.2042 21.92 28.1983 22.0267 28.2336C22.1333 28.2689 22.2222 28.3337 22.2933 28.4278C22.957 29.3225 23.7867 30.0758 24.7822 30.6879C25.7778 31.3001 26.8681 31.7356 28.0533 31.9946C28.1956 32.0181 28.3022 31.9651 28.3733 31.8357C28.4444 31.7062 28.4444 31.5943 28.3733 31.5002C27.757 30.7233 27.3541 29.8581 27.1644 28.9046C26.9748 27.9511 27.0044 27.0094 27.2533 26.0795C27.5022 25.1495 27.9585 24.3196 28.6222 23.5898C29.6889 22.3185 30.5185 20.9295 31.1111 19.4228C31.7037 17.8689 32 16.2563 32 14.5847C32 11.9479 31.277 9.49949 29.8311 7.23939C28.4089 5.02637 26.4889 3.27244 24.0711 1.97759C21.5822 0.659196 18.8919 0 16 0ZM15.9644 6.78031C16.083 6.78031 16.1837 6.80973 16.2667 6.86859C16.3496 6.92745 16.403 7.00396 16.4267 7.09813L18.1333 11.9362L23.3244 12.0421C23.5378 12.0421 23.68 12.148 23.7511 12.3599C23.8222 12.5718 23.763 12.7484 23.5733 12.8896L19.4844 15.9973L20.9778 20.9059C21.0252 21.1178 20.96 21.2885 20.7822 21.418C20.6044 21.5475 20.4207 21.5534 20.2311 21.4357L16 18.4693L11.7689 21.4357C11.5793 21.5534 11.3956 21.5475 11.2178 21.418C11.04 21.2885 10.9748 21.1178 11.0222 20.9059L12.5156 15.9973L8.42667 12.8896C8.23704 12.7484 8.17778 12.5718 8.24889 12.3599C8.32 12.148 8.46222 12.0421 8.67556 12.0421L13.8667 11.9362L15.5378 7.09813C15.6089 6.88625 15.7511 6.78031 15.9644 6.78031Z" fill="#6B6B6B"/>
</svg>
