<svg width="32" height="32" viewBox="0 0 32 32" fill="none" xmlns="http://www.w3.org/2000/svg">
<g clip-path="url(#clip0_42_93)">
<path d="M30.093 8.96669H22.6261C22.7218 8.8262 22.7978 8.75708 22.8453 8.71086C23.8197 7.76521 24.2933 6.6403 24.2933 5.275C24.2933 4.09839 23.8251 3.02573 22.9745 2.25612C22.1631 1.52149 21.0665 1.11646 19.8874 1.11646C18.7082 1.11646 17.6119 1.52093 16.8002 2.25556C15.9497 3.02531 15.4813 4.09712 15.4813 5.27374C15.4813 7.277 16.594 8.36356 16.9594 8.71971C17.0055 8.76453 17.0783 8.8262 17.1697 8.96669H9.68182C8.59779 8.96669 7.69485 9.84308 7.69485 10.9271V16.9309C7.69485 16.8762 7.60241 16.831 7.57136 16.7991C6.62571 15.8246 5.51386 15.351 4.14857 15.351C2.97195 15.351 1.90591 15.8193 1.13615 16.6698C0.401665 17.4816 0 18.578 0 19.7571C0 20.9363 0.40602 22.0327 1.14079 22.8443C1.91054 23.6948 2.98319 24.1632 4.15981 24.1632C6.16307 24.1632 7.22406 23.0505 7.58007 22.6851C7.60985 22.6546 7.69513 22.6123 7.69513 22.5615V28.9007C7.69513 29.9848 8.59807 30.8835 9.6821 30.8835H30.0931C31.1771 30.8835 32.0001 29.9848 32.0001 28.9007V10.9271C32 9.84308 31.1768 8.96669 30.093 8.96669ZM14.3213 27.7925L15.152 19.7845H18.2984C16.7689 19.0821 15.6912 17.6638 15.6912 15.9268C15.6912 13.6335 17.5697 11.7671 19.8874 11.7671C22.2048 11.7671 24.0834 13.6369 24.0834 15.9303C24.0834 17.6675 23.0056 19.0822 21.4762 19.7847H24.6226L25.4534 27.7927H14.3213V27.7925Z" fill="#6B6B6B"/>
</g>
<defs>
<clipPath id="clip0_42_93">
<rect width="32" height="32" fill="white"/>
</clipPath>
</defs>
</svg>
