<svg width="32" height="32" viewBox="0 0 32 32" fill="none" xmlns="http://www.w3.org/2000/svg">
<path d="M2.33335 32H19C20.28 32 21.3334 30.9466 21.3334 29.6666V13C21.3334 11.72 20.28 10.6666 19 10.6666H2.33335C1.05335 10.6666 0 11.72 0 13V29.6666C0 30.9466 1.05335 32 2.33335 32ZM6.66665 24.3333V17C6.66665 16.6533 6.84 16.3333 7.14665 16.1466C7.44 15.96 7.8 15.9466 8.10665 16.1066L15.44 19.7733C15.7866 19.9466 16 20.2933 16 20.6666C16 21.04 15.7866 21.3866 15.44 21.56L8.10665 25.2266C7.97329 25.2933 7.81329 25.3333 7.66665 25.3333C7.48 25.3333 7.30665 25.2799 7.14665 25.1866C6.84 25 6.66665 24.68 6.66665 24.3333Z" fill="#575757"/>
<path d="M28 18.6666C30.2091 18.6666 32 16.8758 32 14.6666C32 12.4575 30.2091 10.6666 28 10.6666C25.7909 10.6666 24 12.4575 24 14.6666C24 16.8758 25.7909 18.6666 28 18.6666Z" fill="#575757"/>
<path d="M31 25.3333H25C24.448 25.3333 24 25.7813 24 26.3333C24 26.8853 24.448 27.3333 25 27.3333H31C31.552 27.3333 32 26.8853 32 26.3333C32 25.7813 31.552 25.3333 31 25.3333Z" fill="#575757"/>
<path d="M31 29.3333H25C24.448 29.3333 24 29.7813 24 30.3333C24 30.8853 24.448 31.3333 25 31.3333H31C31.552 31.3333 32 30.8853 32 30.3333C32 29.7813 31.552 29.3333 31 29.3333Z" fill="#575757"/>
<path d="M31 21.3333H25C24.448 21.3333 24 21.7813 24 22.3333C24 22.8853 24.448 23.3333 25 23.3333H31C31.552 23.3333 32 22.8853 32 22.3333C32 21.7813 31.552 21.3333 31 21.3333Z" fill="#575757"/>
<path d="M29.6666 0H2.33335C1.04668 0 0 1.04668 0 2.33335V5.66671C0 6.95332 1.04668 8 2.33335 8H29.6667C30.9533 8 32 6.95332 32 5.66665V2.33335C32 1.04668 30.9533 0 29.6666 0Z" fill="#575757"/>
</svg>
