<svg width="14" height="16" viewBox="0 0 14 16" fill="none" xmlns="http://www.w3.org/2000/svg">
<path d="M10.8473 10.973C10.3514 10.973 9.88943 11.1172 9.49992 11.3651L5.56879 8.6205C5.6319 8.40019 5.6664 8.16781 5.6664 7.92726C5.6664 7.68668 5.6319 7.4543 5.56879 7.23402L9.3938 4.56353C9.8042 4.85504 10.3055 5.02704 10.8473 5.02704C12.2354 5.02704 13.3608 3.90169 13.3608 2.51354C13.3608 1.12538 12.2354 0 10.8473 0C9.45914 0 8.33379 1.12535 8.33379 2.5135C8.33379 2.69683 8.35396 2.87538 8.39121 3.04755L4.46908 5.78586C4.08623 5.55006 3.63557 5.41376 3.1529 5.41376C1.76475 5.41376 0.639404 6.53911 0.639404 7.92726C0.639404 9.31541 1.76472 10.4408 3.1529 10.4408C3.63553 10.4408 4.08623 10.3045 4.46908 10.0687L8.4215 12.8281C8.36467 13.038 8.33379 13.2586 8.33379 13.4865C8.33379 14.8747 9.45914 16 10.8473 16C12.2354 16 13.3608 14.8747 13.3608 13.4865C13.3608 12.0983 12.2354 10.973 10.8473 10.973Z" fill="#939393"/>
</svg>
