<svg width="20" height="20" viewBox="0 0 20 20" fill="none" xmlns="http://www.w3.org/2000/svg">
<path d="M18.0527 6.60939C17.6145 5.56354 16.977 4.61294 16.1757 3.81056C15.3769 3.00679 14.4279 2.36774 13.3827 1.92971C12.3121 1.47879 11.1617 1.24765 9.99993 1.25002H9.96087C8.77923 1.25588 7.63665 1.49025 6.56048 1.95119C5.52429 2.39372 4.58425 3.0339 3.7929 3.83595C2.9994 4.63653 2.36921 5.58381 1.93743 6.62502C1.48922 7.70776 1.2621 8.86921 1.26946 10.041C1.27532 11.3965 1.59954 12.7422 2.20501 13.9453V16.9141C2.20501 17.4102 2.60735 17.8125 3.10149 17.8125H6.06634C7.27508 18.4224 8.60893 18.7434 9.96282 18.75H10.0038C11.1718 18.75 12.3027 18.5235 13.3691 18.0801C14.4089 17.6473 15.3543 17.0157 16.1523 16.2207C16.957 15.4219 17.5898 14.4883 18.0331 13.4473C18.4921 12.3692 18.7265 11.2227 18.7324 10.0391C18.7363 8.84963 18.5058 7.69533 18.0527 6.60939ZM6.10149 10.9375C5.58587 10.9375 5.16595 10.5176 5.16595 10C5.16595 9.48244 5.58587 9.06252 6.10149 9.06252C6.61712 9.06252 7.03704 9.48244 7.03704 10C7.03704 10.5176 6.61907 10.9375 6.10149 10.9375ZM9.99993 10.9375C9.48431 10.9375 9.06438 10.5176 9.06438 10C9.06438 9.48244 9.48431 9.06252 9.99993 9.06252C10.5156 9.06252 10.9355 9.48244 10.9355 10C10.9355 10.5176 10.5156 10.9375 9.99993 10.9375ZM13.8984 10.9375C13.3827 10.9375 12.9628 10.5176 12.9628 10C12.9628 9.48244 13.3827 9.06252 13.8984 9.06252C14.414 9.06252 14.8339 9.48244 14.8339 10C14.8339 10.5176 14.414 10.9375 13.8984 10.9375Z" fill="#E5D9D9"/>
</svg>
