<svg width="60" height="60" viewBox="0 0 60 60" fill="none" xmlns="http://www.w3.org/2000/svg">
<circle cx="30" cy="30" r="30" fill="#3D63F8"/>
<g clip-path="url(#clip0_1:99)">
<path d="M22.3328 38.7083C20.1982 38.7083 18.2995 37.3416 17.61 35.3069L17.5634 35.1535C17.4008 34.6147 17.3327 34.1616 17.3327 33.7082V24.6171L14.098 35.4148C13.6819 37.0029 14.6299 38.6495 16.2206 39.0882L36.8385 44.6098C37.0958 44.6765 37.3532 44.7085 37.6066 44.7085C38.9345 44.7085 40.1479 43.8271 40.488 42.5282L41.6892 38.7083H22.3328Z" fill="white"/>
<path d="M25.9996 24.7078C27.4703 24.7078 28.6661 23.5117 28.6661 22.041C28.6661 20.5703 27.4703 19.3742 25.9996 19.3742C24.5288 19.3742 23.3328 20.5703 23.3328 22.041C23.3328 23.5117 24.5288 24.7078 25.9996 24.7078Z" fill="white"/>
<path d="M42.6665 15.3742H22.666C20.8288 15.3742 19.3326 16.8703 19.3326 18.7078V33.3746C19.3326 35.2121 20.8288 36.7082 22.666 36.7082H42.6665C44.5039 36.7082 46 35.2121 46 33.3746V18.7078C46 16.8703 44.5039 15.3742 42.6665 15.3742V15.3742ZM22.666 18.041H42.6665C43.0346 18.041 43.3332 18.3396 43.3332 18.7078V28.1733L39.1212 23.2584C38.6744 22.7345 38.0277 22.4544 37.3331 22.4386C36.6424 22.4425 35.9944 22.7491 35.5518 23.2799L30.5995 29.2239L28.9862 27.6145C28.0743 26.7026 26.5902 26.7026 25.6795 27.6145L21.9995 31.2933V18.7078C21.9995 18.3396 22.2981 18.041 22.666 18.041V18.041Z" fill="white"/>
</g>
<defs>
<clipPath id="clip0_1:99">
<rect width="32" height="32" fill="white" transform="translate(14 14)"/>
</clipPath>
</defs>
</svg>
