<svg width="32" height="32" viewBox="0 0 32 32" fill="none" xmlns="http://www.w3.org/2000/svg">
<path d="M32 3.54349C32 2.12013 30.8462 0.966309 29.4228 0.966309H2.57718C1.15383 0.966309 0 2.12013 0 3.54349V28.4562C0 29.8796 1.15383 31.0334 2.57718 31.0334H29.4228C30.8462 31.0334 32 29.8796 32 28.4562V3.54349ZM9.77181 4.18779H14.3893V7.83879H9.77181V4.18779ZM6.55034 27.8119H3.22148V24.1609H6.55034V27.8119ZM6.55034 7.83879H3.22148V4.18779H6.55034V7.83879ZM14.3893 27.8119H9.77181V24.1609H14.3893V27.8119ZM13.2081 18.9752V13.0244C13.2081 12.1385 13.8382 11.8108 14.5793 12.296L18.9001 15.1172C19.6412 15.6024 19.6472 16.3965 18.9061 16.8819L14.5763 19.7036C13.8352 20.189 13.2081 19.8611 13.2081 18.9752ZM22.2282 27.8119H17.6107V24.1609H22.2282V27.8119ZM22.2282 7.83879H17.6107V4.18779H22.2282V7.83879ZM28.7785 27.8119H25.4497V24.1609H28.7785V27.8119ZM28.7785 7.83879H25.4497V4.18779H28.7785V7.83879Z" fill="#9557E3"/>
</svg>
