<svg width="20" height="20" viewBox="0 0 20 20" fill="none" xmlns="http://www.w3.org/2000/svg">
<path d="M14.6855 15.0027C13.7271 15.0027 12.9474 14.223 12.9474 13.2647V10.3782C12.9474 9.41988 13.7271 8.64021 14.6855 8.64021H19.2143C19.2418 8.64021 19.269 8.64104 19.2961 8.64226V5.76691C19.2961 5.02676 18.6961 4.42676 17.956 4.42676H1.34019C0.600003 4.42671 0 5.02672 0 5.76686V17.876C0 18.6162 0.600003 19.2162 1.34019 19.2162H17.956C18.6961 19.2162 19.2961 18.6162 19.2961 17.876V15.0007C19.269 15.0019 19.2418 15.0027 19.2143 15.0027H14.6855Z" fill="#E5D9D9"/>
<path d="M19.2143 9.59259H14.6855C14.2516 9.59259 13.8998 9.94437 13.8998 10.3783V13.2647C13.8998 13.6986 14.2516 14.0504 14.6855 14.0504H19.2143C19.6482 14.0504 20 13.6987 20 13.2647V10.3783C20 9.94432 19.6482 9.59259 19.2143 9.59259ZM16.246 12.9555C15.6197 12.9555 15.112 12.4478 15.112 11.8214C15.112 11.1951 15.6197 10.6874 16.246 10.6874C16.8723 10.6874 17.38 11.1951 17.38 11.8214C17.38 12.4478 16.8723 12.9555 16.246 12.9555Z" fill="#E5D9D9"/>
<path d="M15.6225 1.97188C15.3226 1.06437 14.3439 0.571753 13.4364 0.87158L6.62805 3.12089H16.0021L15.6225 1.97188Z" fill="#E5D9D9"/>
</svg>
